<svg id="Layer_1" data-name="Layer 1" xmlns="http://www.w3.org/2000/svg" viewBox="0 0 143 139">
  <defs>
    <style>
      .cls-1 {
        fill: #fff;
      }
    </style>
  </defs>
  <title>insta logo</title>
  <g>
    <rect class="cls-1" x="4" y="4" width="135" height="131" rx="23.53"/>
    <path class="cls-1" d="M197.47,81A19.55,19.55,0,0,1,217,100.53v83.94A19.55,19.55,0,0,1,197.47,204H109.53A19.55,19.55,0,0,1,90,184.47V100.53A19.55,19.55,0,0,1,109.53,81h87.94m0-8H109.53A27.61,27.61,0,0,0,82,100.53v83.94A27.61,27.61,0,0,0,109.53,212h87.94A27.61,27.61,0,0,0,225,184.47V100.53A27.61,27.61,0,0,0,197.47,73Z" transform="translate(-82 -73)"/>
  </g>
  <g>
    <circle class="cls-1" cx="71.5" cy="69.5" r="27"/>
    <path class="cls-1" d="M153.5,120A22.5,22.5,0,1,1,131,142.5,22.52,22.52,0,0,1,153.5,120m0-9A31.5,31.5,0,1,0,185,142.5,31.5,31.5,0,0,0,153.5,111Z" transform="translate(-82 -73)"/>
  </g>
  <g>
    <circle class="cls-1" cx="111.5" cy="29.5" r="1"/>
    <path class="cls-1" d="M193.5,97a5.5,5.5,0,1,0,5.5,5.5,5.5,5.5,0,0,0-5.5-5.5Z" transform="translate(-82 -73)"/>
  </g>
</svg>
